<?xml version="1.0" encoding="utf-8"?>
<!-- Generator: Adobe Illustrator 23.0.6, SVG Export Plug-In . SVG Version: 6.00 Build 0)  -->
<svg version="1.1" id="Camada_1" xmlns="http://www.w3.org/2000/svg" xmlns:xlink="http://www.w3.org/1999/xlink" x="0px" y="0px"
	 viewBox="0 0 299.4 86.7" style="enable-background:new 0 0 299.4 86.7;" xml:space="preserve">
<style type="text/css">
	.st0{fill:#FFFFFF;}
	.st1{fill:#F26722;}
</style>
<path class="st0" d="M126.8,40.5c-0.1,11.8-6.4,17.4-19.4,17.4c-13-0.1-19.4-5.7-19.3-17.5l0.1-26.1l13.1,0.1l-0.1,23.2
	c0,4.3,0,9.8,6.3,9.8c6.2,0,6.2-5.4,6.2-9.7l0.1-23.2l13.1,0.1L126.8,40.5z M131.4,27.1h11.4V31h0.1c2.2-3.1,5.4-4.7,10.1-4.7
	c5.5,0,10.6,3.4,10.6,10.5L163.5,58l-11.8-0.1l0.1-16.2c0-3.6-0.4-6.1-3.8-6.1c-2,0-4.7,1-4.7,5.9L143,58h-11.8L131.4,27.1
	L131.4,27.1z M179.8,24L168,23.9v-8.3l11.8,0.1V24z M168,27.2l11.8,0.1l-0.1,30.9l-11.8-0.1C167.9,58.1,168,27.2,168,27.2z
	 M229.1,45c0.3,3.5,2.3,6,6,6c1.9,0,4-0.7,5-2.2h11c-2.4,6.7-8.9,9.7-15.9,9.7c-9.9,0-17.3-5.9-17.3-16.2c0-9,6.6-16.3,16.4-16.2
	c12.3,0.1,17.5,6.9,17.5,18.9H229.1z M240.5,38.9c0-2.9-2.1-5.2-5.2-5.2c-3.5,0-5.5,1.8-6.1,5.2H240.5z M256.3,27.6h11.4v3.9h0.1
	c2.2-3.1,5.4-4.7,10.1-4.7c5.5,0,10.6,3.4,10.6,10.5l-0.1,21.2l-11.8-0.1l0.1-16.2c0-3.6-0.4-6.1-3.8-6.1c-2,0-4.7,1-4.7,5.9
	l-0.1,16.3l-11.8-0.1L256.3,27.6L256.3,27.6z M207.5,58.3l-13.9-0.1l-10-30.9l12.4,0.1l4.7,18.8h0.1l5-18.8l12,0.1L207.5,58.3z
	 M169.2,69.1h4l1.5,10.9l1.5-10.9h4l-3.1,14.4h-4.8L169.2,69.1L169.2,69.1z M181.9,69.1h8.5v3.1h-4.8v2.5h4.5v3h-4.5v2.9h5v3.1h-8.7
	V69.1z M194.9,72.3H192v-3.2h9.4v3.2h-2.8v11.2h-3.8L194.9,72.3L194.9,72.3z M203.3,69.1h8.5v3.1H207v2.5h4.5v3H207v2.9h5v3.1h-8.7
	V69.1L203.3,69.1z M214.4,69.1h5.9c2.9,0,4,1.6,4,3.8c0,1.9-0.7,3.2-2.5,3.4c1.8,0.2,2.4,1.3,2.4,3.2v1.2c0,0.7,0,1.7,0.2,2
	c0.1,0.2,0.2,0.3,0.4,0.4v0.2h-4c-0.4-0.8-0.4-2.1-0.4-2.7v-1c0-1.6-0.3-2.1-1.2-2.1h-1v5.8h-3.8L214.4,69.1L214.4,69.1z
	 M218.2,75.2h0.7c1.1,0,1.6-0.7,1.6-1.7c0-1.2-0.5-1.7-1.6-1.7h-0.7V75.2z M226.9,69.1h3.8v14.4h-3.8V69.1z M233.3,69.1h4.2l2.4,8.9
	v-8.9h3.5v14.4h-4.1l-2.5-8.9v8.9h-3.5L233.3,69.1L233.3,69.1z M248.6,69.1h4.7l3.5,14.4h-4l-0.4-2.5h-3l-0.4,2.5h-4L248.6,69.1
	L248.6,69.1z M250.3,65.2h3.4l-1.9,2.9h-2.3L250.3,65.2z M251,72.1l-1.1,6.1h2.1L251,72.1z M258.5,69.1h5.9c2.9,0,4,1.6,4,3.8
	c0,1.9-0.7,3.2-2.5,3.4c1.8,0.2,2.4,1.3,2.4,3.2v1.2c0,0.7,0,1.7,0.2,2c0.1,0.2,0.2,0.3,0.4,0.4v0.2h-4c-0.4-0.8-0.4-2.1-0.4-2.7v-1
	c0-1.6-0.3-2.1-1.2-2.1h-1v5.8h-3.8V69.1z M262.2,75.2h0.7c1.1,0,1.6-0.7,1.6-1.7c0-1.2-0.5-1.7-1.6-1.7h-0.7V75.2z M270.9,69.1h3.8
	v14.4h-3.8V69.1z M279.7,69.1h4.7l3.5,14.4h-4l-0.4-2.5h-3l-0.4,2.5h-4L279.7,69.1L279.7,69.1z M282.1,72.1l-1.1,6.1h2.1L282.1,72.1
	z"/>
<path class="st1" d="M68.1,11.9L68,39.3c-0.1,12.5-11,22.5-24.5,22.5S19.1,51.6,19.1,39.1l0.1-27.6C12.9,17.8,8.9,26.4,8.9,36
	C8.8,55.1,24.2,70.7,43.3,70.8C62.5,70.9,78,55.4,78.1,36.3C78.1,26.8,74.3,18.2,68.1,11.9z"/>
<path class="st1" d="M37.9,53c1.4,0.9,3.2,1.3,5.2,1.3h0.2c2,0,3.8-0.4,5.2-1.3c1.4-0.8,2.6-2.1,3.4-3.8l13.6-38.4l-1.4-1.4
	c-0.6-0.6-1.4-1.3-2.1-1.8c-0.3-0.2-0.7-0.5-1-0.8c-0.7-0.5-1.4-1.1-2.2-1.6l-3-1.9L43.3,40.8L31,3.2l-3,1.9
	c-1.2,0.8-2.3,1.6-3.3,2.5c-0.1,0.1-0.4,0.3-0.7,0.5L22.8,9l-1.5,1.3l13.2,38.8C35.3,50.8,36.5,52.1,37.9,53z"/>
</svg>
